<svg xmlns="http://www.w3.org/2000/svg" viewBox="0 0 125.38 54.12"><defs><style>.cls-1{fill:#ffffff}.cls-2{fill:#008fd2}</style></defs><g id="Layer_2" data-name="Layer 2"><g id="Layer_1-2" data-name="Layer 1"><path class="cls-1" d="M6.82 18.36V17A3 3 0 0 1 4 18.61a2.16 2.16 0 0 1-2.45-2.34v-3.94c0-.48-.2-.67-.66-.67H0v-1.1h3.49v5.53a1.17 1.17 0 0 0 1.28 1.22 2.14 2.14 0 0 0 2.05-2.15v-2.83c0-.47-.28-.67-.82-.67h-.9v-1.1h3.68v6c0 .48.2.67 1 .67h.67v1.1ZM14.31 12a3.37 3.37 0 0 1 2.9-1.7c1.47 0 2.37.89 2.37 2.68v3.6c0 .48.2.67 1 .67h.6v1.1h-4.84v-1.1h.4c.7 0 .9-.19.9-.67v-3.45c0-1.25-.67-1.52-1.46-1.52a2.06 2.06 0 0 0-1.87 1.92v3.06c0 .48.2.67.67.67h.65v1.1h-4.9v-1.1h.95c.47 0 .67-.19.67-.67v-4c0-.71-.2-.9-1.07-.9h-.55v-1.1h3.58ZM27.65 17A2.86 2.86 0 0 1 25 18.61c-2.31 0-3.3-2.1-3.3-4.15s1.22-4.15 3.3-4.15a3.11 3.11 0 0 1 2.61 1.44v-2.6c0-.5-.17-.73-.69-.73h-1v-1.1h3.69v9.2c0 .5.15.74.67.74h.86v1.1h-3.49Zm-2 .32c1.11 0 2-.93 2-2.95 0-1.81-.89-2.75-2-2.75s-1.72.94-1.72 2.85.6 2.84 1.72 2.84ZM33.66 14.66c0 1.3.35 2.7 1.9 2.7a1.87 1.87 0 0 0 2-1.77H39c-.21 1.9-1.36 3-3.58 3-2.58 0-3.94-1.45-3.94-4.15a3.83 3.83 0 0 1 3.86-4.15A3.79 3.79 0 0 1 39 14.66Zm3.09-1.1c0-1.05-.31-2.08-1.49-2.08s-1.55 1-1.6 2.08ZM43 11.83c.67-1 1.18-1.52 2.08-1.52a1.84 1.84 0 0 1 2 1.84 1.27 1.27 0 0 1-1.27 1.39 1.07 1.07 0 0 1-1.18-1.06 1 1 0 0 1 1.1-1 .89.89 0 0 0-.7-.23A2.33 2.33 0 0 0 43 13.81v2.78c0 .48.2.67.67.67h1v1.1h-5.25v-1.1h.91c.47 0 .67-.19.67-.67v-4.26c0-.48-.2-.67-.67-.67h-.91v-1.1H43ZM52.16 11.66v-1.05c1.69-.11 2.13-1.61 2.28-3.14h1v3.09h2.2v1.1h-2.12v4.91c0 .34.18.55.63.55s.72-.28.72-.94v-1.49H58v1.4c0 1.75-1 2.52-2.28 2.52s-2.14-.52-2.14-1.85v-5.1ZM61.86 11.88a3.52 3.52 0 0 1 2.89-1.57 2.19 2.19 0 0 1 2.37 2.34v3.94c0 .48.2.67.66.67h.94v1.1h-4.83v-1.1h.64c.46 0 .66-.19.66-.67v-3.81c0-.85-.58-1.17-1.46-1.17A2.19 2.19 0 0 0 61.86 14v2.6c0 .48.2.67.67.67h.65v1.1h-4.9v-1.1h.95c.47 0 .67-.19.67-.67V9.08c0-.48-.2-.66-.67-.66h-.95v-1.1h3.58ZM71.37 14.66c-.05 1.3.35 2.7 1.9 2.7a1.86 1.86 0 0 0 2-1.77h1.38c-.21 1.9-1.36 3-3.58 3-2.58 0-3.94-1.45-3.94-4.15A3.83 3.83 0 0 1 73 10.31a3.79 3.79 0 0 1 3.7 4.35Zm3.1-1.1c0-1.05-.32-2.08-1.5-2.08s-1.55 1-1.6 2.08Z"/><path class="cls-2" d="M85.39 11.83c.67-1 1.18-1.52 2.08-1.52a1.84 1.84 0 0 1 2 1.84 1.27 1.27 0 0 1-1.27 1.39 1.07 1.07 0 0 1-1.18-1.06 1 1 0 0 1 1.1-1 .89.89 0 0 0-.7-.23 2.33 2.33 0 0 0-2.07 2.56v2.78c0 .48.2.67.67.67h1.05v1.1h-5.21v-1.1h.91c.47 0 .67-.19.67-.67v-4.26c0-.48-.2-.67-.67-.67h-.91v-1.1h3.53ZM98.76 15.46V16c0 1.86-.75 2.65-2.15 2.65a1.5 1.5 0 0 1-1.68-1.24 3.09 3.09 0 0 1-2.73 1.24 2 2 0 0 1-2.32-2.12c0-3.23 5-1.66 5-4 0-1.07-.9-1.27-1.78-1.27a2.16 2.16 0 0 0-1.55.55c.62-.08 1.1.19 1.1.87s-.52 1-1.17 1a1.19 1.19 0 0 1-1.2-1.23c0-1.7 2-2.07 3.35-2.07 2.25 0 3.21 1 3.21 2.42v4.08c0 .36.15.55.4.55s.45-.24.45-1.27v-.63Zm-3.88-1.22-1.77.8c-.48.22-1 .49-1 1.27s.31 1.05 1 1.05a1.85 1.85 0 0 0 1.77-2ZM104.87 17a2.88 2.88 0 0 1-2.62 1.62c-2.31 0-3.3-2.1-3.3-4.15s1.22-4.15 3.3-4.15a3.15 3.15 0 0 1 2.62 1.44V9.15c0-.5-.17-.73-.68-.73h-1v-1.1h3.69v9.2c0 .5.15.74.67.74h.87v1.1h-3.5Zm-2 .32c1.12 0 2-.93 2-2.95 0-1.81-.88-2.75-2-2.75s-1.71.94-1.71 2.85.6 2.84 1.71 2.84ZM117.52 15.46V16c0 1.86-.75 2.65-2.15 2.65a1.5 1.5 0 0 1-1.68-1.24 3.08 3.08 0 0 1-2.69 1.2 2 2 0 0 1-2.31-2.12c0-3.23 5-1.66 5-4 0-1.07-.9-1.27-1.78-1.27a2.18 2.18 0 0 0-1.55.55c.62-.08 1.1.19 1.1.87s-.51 1-1.16 1a1.18 1.18 0 0 1-1.2-1.23c0-1.7 2-2.07 3.34-2.07 2.25 0 3.22 1 3.22 2.42v4.08c0 .36.15.55.4.55s.45-.24.45-1.27v-.63Zm-3.88-1.22-1.76.8c-.48.22-1 .49-1 1.27s.32 1.05 1 1.05a1.84 1.84 0 0 0 1.76-2ZM121.09 11.83c.66-1 1.18-1.52 2.08-1.52a1.84 1.84 0 0 1 2 1.84 1.27 1.27 0 0 1-1.17 1.39 1.07 1.07 0 0 1-1.18-1.06 1 1 0 0 1 1.1-1 .91.91 0 0 0-.7-.23 2.33 2.33 0 0 0-2.07 2.56v2.78c0 .48.2.67.67.67h1v1.1h-5.26v-1.1h.91c.47 0 .67-.19.67-.67v-4.26c0-.48-.2-.67-.67-.67h-.91v-1.1h3.53Z"/><path class="cls-1" d="M124.38 27.33h-.1a1 1 0 0 1 0-2h.1a1 1 0 0 1 0 2ZM120.76 27.33h-.2a1 1 0 0 1 0-2h.2a1 1 0 0 1 0 2Zm-3.72 0h-.2a1 1 0 0 1 0-2h.2a1 1 0 0 1 0 2Zm-3.72 0h-.21a1 1 0 0 1 0-2h.21a1 1 0 0 1 0 2Zm-3.73 0h-.2a1 1 0 0 1 0-2h.2a1 1 0 0 1 0 2Zm-3.72 0h-.2a1 1 0 0 1 0-2h.2a1 1 0 0 1 0 2Zm-3.72 0H102a1 1 0 0 1 0-2h.2a1 1 0 0 1 0 2Zm-3.72 0h-.2a1 1 0 0 1 0-2h.2a1 1 0 0 1 0 2Zm-3.72 0h-.2a1 1 0 0 1 0-2h.2a1 1 0 0 1 0 2Zm-3.73 0h-.2a1 1 0 0 1 0-2H91a1 1 0 0 1 0 2Zm-3.72 0h-.2a1 1 0 0 1 0-2h.2a1 1 0 0 1 0 2Zm-3.72 0h-.2a1 1 0 0 1 0-2h.2a1 1 0 0 1 0 2Zm-3.72 0h-.2a1 1 0 0 1 0-2h.2a1 1 0 0 1 0 2Zm-3.72 0h-.2a1 1 0 0 1 0-2h.2a1 1 0 0 1 0 2Zm-3.72 0h-.21a1 1 0 0 1 0-2h.21a1 1 0 0 1 0 2Zm-3.73 0h-.2a1 1 0 0 1 0-2h.2a1 1 0 0 1 0 2Zm-3.72 0h-.2a1 1 0 0 1 0-2h.2a1 1 0 0 1 0 2Zm-3.72 0H61a1 1 0 0 1 0-2h.2a1 1 0 0 1 0 2Zm-3.72 0h-.2a1 1 0 0 1 0-2h.2a1 1 0 0 1 0 2Zm-3.72 0h-.2a1 1 0 0 1 0-2h.2a1 1 0 0 1 0 2Zm-3.73 0h-.2a1 1 0 0 1 0-2H50a1 1 0 1 1 0 2Zm-3.72 0h-.2a1 1 0 1 1 0-2h.2a1 1 0 1 1 0 2Zm-3.72 0h-.2a1 1 0 1 1 0-2h.2a1 1 0 1 1 0 2Zm-3.72 0h-.2a1 1 0 1 1 0-2h.2a1 1 0 1 1 0 2Zm-3.72 0H35a1 1 0 0 1 0-2h.2a1 1 0 0 1 0 2Zm-3.72 0h-.21a1 1 0 0 1 0-2h.21a1 1 0 0 1 0 2Zm-3.73 0h-.2a1 1 0 0 1 0-2h.2a1 1 0 0 1 0 2Zm-3.72 0h-.2a1 1 0 0 1 0-2H24a1 1 0 0 1 0 2Zm-3.72 0h-.2a1 1 0 0 1 0-2h.2a1 1 0 0 1 0 2Zm-3.72 0h-.2a1 1 0 0 1 0-2h.2a1 1 0 0 1 0 2Zm-3.72 0h-.21a1 1 0 1 1 0-2h.21a1 1 0 0 1 0 2Zm-3.73 0h-.2a1 1 0 1 1 0-2h.2a1 1 0 1 1 0 2Zm-3.72 0h-.2a1 1 0 0 1 0-2h.2a1 1 0 0 1 0 2ZM1.66 27.33h-.1a1 1 0 1 1 0-2 1 1 0 0 1 1 1 1 1 0 0 1-.9 1Z"/><path class="cls-1" d="M.76 53.54v-2.13h2c.89 0 1.18-.29 1.18-1V37.64c0-.75-.29-1-1.18-1h-2v-2.17h12.51c4.17 0 6.12 1.64 6.12 4.78 0 3-2.5 4.4-5.4 4.66V44c3 .38 3.71 1.7 3.71 3.94 0 3.05.69 3.51 1.18 3.51.69 0 1-.6 1-2.3v-.89h1.9v.89c0 3.68-1.58 5-4 5-2.84 0-3.71-1.56-3.71-3.92 0-4.6-1-5.6-4.4-5.6H8v5.78c0 .74.28 1 1.17 1h2.1v2.13ZM8 42.47h3.39c3.11 0 4-1 4-3.14 0-1.78-1.18-2.79-3.71-2.79H8ZM23.51 53.54v-2.13h1.61c1 0 1.52-.29 1.52-2v-11.2c0-1.24-.34-1.61-1.84-1.61h-1.29v-2.13h19v7.59h-2.15c-.43-3.91-.77-5.46-4.63-5.46h-5.06v6h1.52c1.73 0 2.51-.86 2.51-3.19V39h2.12v9.6H34.7v-.69c0-2.33-.78-3.22-2.51-3.22h-1.52v6.7h5.75c2.65 0 3.68-1.64 3.94-5.92h2.13v8ZM44.91 53.54v-2.13h1.84c.66 0 1.23-.23 1.23-1V37.58c0-.75-.57-1-1.23-1h-1.84v-2.11h11.27c4.32 0 6.79 2 6.79 5.24 0 3.53-2.59 5.2-6.44 5.2H52v5.52c0 .75.72 1 1.38 1h1.84v2.13ZM52 42.78h2.62c2.7 0 4.14-.83 4.14-3.05s-1.15-3.13-4.14-3.13H52ZM85.64 44c0 5.72-4.15 10.1-10.39 10.1S64.87 49.74 64.87 44 69 33.9 75.25 33.9 85.64 38.3 85.64 44Zm-16.26 0c0 4.11 1.33 7.85 6 7.85s5.78-3.74 5.78-7.85-1.24-7.88-5.87-7.88-5.91 3.79-5.91 7.88ZM86 53.54v-2.13h2c.89 0 1.18-.29 1.18-1V37.64c0-.75-.29-1-1.18-1h-2v-2.17h12.55c4.17 0 6.13 1.64 6.13 4.78 0 3-2.51 4.4-5.41 4.66V44c3 .38 3.71 1.7 3.71 3.94 0 3.05.69 3.51 1.18 3.51.69 0 1-.6 1-2.3v-.89H107v.89c0 3.68-1.58 5-4 5-2.85 0-3.71-1.56-3.71-3.92 0-4.6-1-5.6-4.41-5.6h-1.62v5.78c0 .74.29 1 1.18 1h2.1v2.13Zm7.22-11.07h3.39c3.11 0 4-1 4-3.14 0-1.78-1.18-2.79-3.71-2.79h-3.64ZM125.13 34.47v7.85H123V41c0-3.05-1.58-4.43-4.78-4.43v13.81c0 .74.29 1 1.18 1h2.19v2.13h-10.76v-2.1H113c.89 0 1.18-.29 1.18-1V36.6c-3.2 0-4.78 1.38-4.78 4.43v1.29h-2.13v-7.85Z"/><path class="cls-1" d="M7.73 0 3.86 3.86 0 0h7.73z"/></g></g></svg>